<svg width="22" height="22" viewBox="0 0 22 22" fill="none" xmlns="http://www.w3.org/2000/svg">
<path d="M9.53298 0.279015C4.35298 0.279015 0.125977 4.41901 0.125977 9.55801C0.125977 14.697 4.35198 18.837 9.53298 18.837C11.767 18.837 13.823 18.067 15.44 16.779L19.793 21.132C19.8852 21.2275 19.9956 21.3037 20.1176 21.3561C20.2396 21.4085 20.3708 21.4361 20.5036 21.4373C20.6364 21.4384 20.768 21.4131 20.8909 21.3628C21.0138 21.3126 21.1255 21.2383 21.2194 21.1444C21.3133 21.0505 21.3875 20.9389 21.4378 20.816C21.4881 20.6931 21.5134 20.5614 21.5122 20.4286C21.5111 20.2958 21.4835 20.1646 21.4311 20.0426C21.3787 19.9206 21.3025 19.8103 21.207 19.718L16.863 15.374C18.2079 13.7343 18.942 11.6787 18.94 9.55801C18.94 4.41802 14.714 0.278015 9.53298 0.278015V0.279015ZM2.12598 9.55801C2.12598 5.55201 5.42798 2.27802 9.53298 2.27802C13.638 2.27802 16.94 5.55201 16.94 9.55801C16.94 13.564 13.638 16.837 9.53298 16.837C5.42798 16.837 2.12598 13.565 2.12598 9.55801Z" fill="white"/>
</svg>
